<?xml version="1.0" standalone="no"?>
<!DOCTYPE svg PUBLIC "-//W3C//DTD SVG 20010904//EN"
 "http://www.w3.org/TR/2001/REC-SVG-20010904/DTD/svg10.dtd">
<svg version="1.0" xmlns="http://www.w3.org/2000/svg"
 width="64.000000pt" height="64.000000pt" viewBox="0 0 64.000000 64.000000"
 preserveAspectRatio="xMidYMid meet">
<g transform="translate(0.000000,64.000000) scale(0.100000,-0.100000)">
<path d="M20 375 l0 -115 225 0 225 0 0 -55 c0 -30 3 -55 7 -55 4 0 40 33 80
72 l73 73 -72 72 c-40 40 -76 73 -80 73 -5 0 -8 -25 -8 -55 l0 -55 -190 0
-190 0 0 80 0 80 -35 0 -35 0 0 -115z"/>
</g>
</svg>
