<svg>
  <defs>
    <g id="menu">
      <path d="M3,6H21V8H3V6M3,11H21V13H3V11M3,16H21V18H3V16Z" />
    </g>
    <g id="filter">
      <path d="M3,2H21V2H21V4H20.92L14,10.92V22.91L10,18.91V10.91L3.09,4H3V2Z" />
    </g>
    <g id="filter-remove">
        <path d="M14.76,20.83L17.6,18L14.76,15.17L16.17,13.76L19,16.57L21.83,13.76L23.24,15.17L20.43,18L23.24,20.83L21.83,22.24L19,19.4L16.17,22.24L14.76,20.83M2,2H20V2H20V4H19.92L13,10.92V22.91L9,18.91V10.91L2.09,4H2V2Z" />
    </g>
    <g id="sort">
      <path d="M10,13V11H18V13H10M10,19V17H14V19H10M10,7V5H22V7H10M6,17H8.5L5,20.5L1.5,17H4V7H1.5L5,3.5L8.5,7H6V17Z" />
    </g>
    <g id="dots-vertical">
      <path d="M12,16A2,2 0 0,1 14,18A2,2 0 0,1 12,20A2,2 0 0,1 10,18A2,2 0 0,1 12,16M12,10A2,2 0 0,1 14,12A2,2 0 0,1 12,14A2,2 0 0,1 10,12A2,2 0 0,1 12,10M12,4A2,2 0 0,1 14,6A2,2 0 0,1 12,8A2,2 0 0,1 10,6A2,2 0 0,1 12,4Z" />
    </g>
    <g id="close">
      <path d="M19,6.41L17.59,5L12,10.59L6.41,5L5,6.41L10.59,12L5,17.59L6.41,19L12,13.41L17.59,19L19,17.59L13.41,12L19,6.41Z" />
    </g>
    <g id="magnify">
      <path d="M9.5,3A6.5,6.5 0 0,1 16,9.5C16,11.11 15.41,12.59 14.44,13.73L14.71,14H15.5L20.5,19L19,20.5L14,15.5V14.71L13.73,14.44C12.59,15.41 11.11,16 9.5,16A6.5,6.5 0 0,1 3,9.5A6.5,6.5 0 0,1 9.5,3M9.5,5C7,5 5,7 5,9.5C5,12 7,14 9.5,14C12,14 14,12 14,9.5C14,7 12,5 9.5,5Z" />
    </g>
    <g id="arrow-left">
      <path d="M20,11V13H8L13.5,18.5L12.08,19.92L4.16,12L12.08,4.08L13.5,5.5L8,11H20Z" />
    </g>
    <g id="information-outline">
      <path d="M11,9H13V7H11M12,20C7.59,20 4,16.41 4,12C4,7.59 7.59,4 12,4C16.41,4 20,7.59 20,12C20,16.41 16.41,20 12,20M12,2A10,10 0 0,0 2,12A10,10 0 0,0 12,22A10,10 0 0,0 22,12A10,10 0 0,0 12,2M11,17H13V11H11V17Z" />
    </g>
    <g id="file-pdf">
      <path d="M14,9H19.5L14,3.5V9M7,2H15L21,8V20A2,2 0 0,1 19,22H7C5.89,22 5,21.1 5,20V4A2,2 0 0,1 7,2M11.93,12.44C12.34,13.34 12.86,14.08 13.46,14.59L13.87,14.91C13,15.07 11.8,15.35 10.53,15.84V15.84L10.42,15.88L10.92,14.84C11.37,13.97 11.7,13.18 11.93,12.44M18.41,16.25C18.59,16.07 18.68,15.84 18.69,15.59C18.72,15.39 18.67,15.2 18.57,15.04C18.28,14.57 17.53,14.35 16.29,14.35L15,14.42L14.13,13.84C13.5,13.32 12.93,12.41 12.53,11.28L12.57,11.14C12.9,9.81 13.21,8.2 12.55,7.54C12.39,7.38 12.17,7.3 11.94,7.3H11.7C11.33,7.3 11,7.69 10.91,8.07C10.54,9.4 10.76,10.13 11.13,11.34V11.35C10.88,12.23 10.56,13.25 10.05,14.28L9.09,16.08L8.2,16.57C7,17.32 6.43,18.16 6.32,18.69C6.28,18.88 6.3,19.05 6.37,19.23L6.4,19.28L6.88,19.59L7.32,19.7C8.13,19.7 9.05,18.75 10.29,16.63L10.47,16.56C11.5,16.23 12.78,16 14.5,15.81C15.53,16.32 16.74,16.55 17.5,16.55C17.94,16.55 18.24,16.44 18.41,16.25M18,15.54L18.09,15.65C18.08,15.75 18.05,15.76 18,15.78H17.96L17.77,15.8C17.31,15.8 16.6,15.61 15.87,15.29C15.96,15.19 16,15.19 16.1,15.19C17.5,15.19 17.9,15.44 18,15.54M8.83,17C8.18,18.19 7.59,18.85 7.14,19C7.19,18.62 7.64,17.96 8.35,17.31L8.83,17M11.85,10.09C11.62,9.19 11.61,8.46 11.78,8.04L11.85,7.92L12,7.97C12.17,8.21 12.19,8.53 12.09,9.07L12.06,9.23L11.9,10.05L11.85,10.09Z" />
    </g>
    <g id="file-pdf-box">
      <path d="M11.43,10.94C11.2,11.68 10.87,12.47 10.42,13.34C10.22,13.72 10,14.08 9.92,14.38L10.03,14.34V14.34C11.3,13.85 12.5,13.57 13.37,13.41C13.22,13.31 13.08,13.2 12.96,13.09C12.36,12.58 11.84,11.84 11.43,10.94M17.91,14.75C17.74,14.94 17.44,15.05 17,15.05C16.24,15.05 15,14.82 14,14.31C12.28,14.5 11,14.73 9.97,15.06C9.92,15.08 9.86,15.1 9.79,15.13C8.55,17.25 7.63,18.2 6.82,18.2C6.66,18.2 6.5,18.16 6.38,18.09L5.9,17.78L5.87,17.73C5.8,17.55 5.78,17.38 5.82,17.19C5.93,16.66 6.5,15.82 7.7,15.07C7.89,14.93 8.19,14.77 8.59,14.58C8.89,14.06 9.21,13.45 9.55,12.78C10.06,11.75 10.38,10.73 10.63,9.85V9.84C10.26,8.63 10.04,7.9 10.41,6.57C10.5,6.19 10.83,5.8 11.2,5.8H11.44C11.67,5.8 11.89,5.88 12.05,6.04C12.71,6.7 12.4,8.31 12.07,9.64C12.05,9.7 12.04,9.75 12.03,9.78C12.43,10.91 13,11.82 13.63,12.34C13.89,12.54 14.18,12.74 14.5,12.92C14.95,12.87 15.38,12.85 15.79,12.85C17.03,12.85 17.78,13.07 18.07,13.54C18.17,13.7 18.22,13.89 18.19,14.09C18.18,14.34 18.09,14.57 17.91,14.75M19,3H5C3.89,3 3,3.89 3,5V19A2,2 0 0,0 5,21H19A2,2 0 0,0 21,19V5C21,3.89 20.1,3 19,3M17.5,14.04C17.4,13.94 17,13.69 15.6,13.69C15.53,13.69 15.46,13.69 15.37,13.79C16.1,14.11 16.81,14.3 17.27,14.3C17.34,14.3 17.4,14.29 17.46,14.28H17.5C17.55,14.26 17.58,14.25 17.59,14.15C17.57,14.12 17.55,14.08 17.5,14.04M8.33,15.5C8.12,15.62 7.95,15.73 7.85,15.81C7.14,16.46 6.69,17.12 6.64,17.5C7.09,17.35 7.68,16.69 8.33,15.5M11.35,8.59L11.4,8.55C11.47,8.23 11.5,7.95 11.56,7.73L11.59,7.57C11.69,7 11.67,6.71 11.5,6.47L11.35,6.42C11.33,6.45 11.3,6.5 11.28,6.54C11.11,6.96 11.12,7.69 11.35,8.59Z" />
    </g>
    <g id="calendar-checked">
      <path d="M381.523,264.152l-27.789-27.811L225.575,364.478l-55.688-55.71l-27.811,27.811l83.499,83.499L381.523,264.152z    M446.336,52.471H420.1V0h-52.471v52.471H157.524V0h-52.471v52.471H78.817c-29.146,0-52.275,23.719-52.275,52.559l-0.306,367.651   c0,28.84,23.435,52.471,52.581,52.471h367.541c28.927,0,52.559-23.632,52.559-52.471V105.052   C498.917,76.191,475.285,52.471,446.336,52.471z M446.336,472.681H78.817V183.76h367.541v288.921H446.336z" fill="#b5b5b5"/>
    </g>
    <g id="account">
      <path d="M12,4A4,4 0 0,1 16,8A4,4 0 0,1 12,12A4,4 0 0,1 8,8A4,4 0 0,1 12,4M12,14C16.42,14 20,15.79 20,18V20H4V18C4,15.79 7.58,14 12,14Z" />
    </g>
    <g id="chevron-double-left">
      <path fill="#000000" d="M18.41,7.41L17,6L11,12L17,18L18.41,16.59L13.83,12L18.41,7.41M12.41,7.41L11,6L5,12L11,18L12.41,16.59L7.83,12L12.41,7.41Z" />
    </g>
    <g id="chevron-double-right">
      <path d="M5.59,7.41L7,6L13,12L7,18L5.59,16.59L10.17,12L5.59,7.41M11.59,7.41L13,6L19,12L13,18L11.59,16.59L16.17,12L11.59,7.41Z" />
    </g>
    <g id="account-circle">
      <path d="M12,19.2C9.5,19.2 7.29,17.92 6,16C6.03,14 10,12.9 12,12.9C14,12.9 17.97,14 18,16C16.71,17.92 14.5,19.2 12,19.2M12,5A3,3 0 0,1 15,8A3,3 0 0,1 12,11A3,3 0 0,1 9,8A3,3 0 0,1 12,5M12,2A10,10 0 0,0 2,12A10,10 0 0,0 12,22A10,10 0 0,0 22,12C22,6.47 17.5,2 12,2Z" />
    </g>
    <g id="checklists">
      <g>
        <path d="M23.973,18.244c-3.724,0-6.743,3.02-6.743,6.743s3.02,6.743,6.743,6.743s6.743-3.02,6.743-6.743    S27.696,18.244,23.973,18.244z M22.526,29.135l-3.601-3.601l1.414-1.414l2.187,2.187l4.758-4.758l1.414,1.414L22.526,29.135z" fill="#b5b5b5"/>
        <path d="M2.883,28.016V8.924H9.94V1.867h13.362v15.411c0.221-0.019,0.443-0.034,0.67-0.034c0.408,0,0.807,0.041,1.197,0.102V0    H8.755l-7.74,8.171v21.711h16.965c-0.459-0.562-0.843-1.189-1.132-1.867H2.883z M8.072,3.436v3.621H4.643L8.072,3.436z" fill="#b5b5b5"/>
        <rect x="5.122" y="14.174" width="15.825" height="2.104" fill="#b5b5b5"/>
        <path d="M20.036,18.331H5.122v2.104h12.602C18.343,19.586,19.13,18.87,20.036,18.331z" fill="#b5b5b5"/>
        <path d="M5.122,24.779h11.119c0.02-0.73,0.133-1.438,0.342-2.104H5.122V24.779z" fill="#b5b5b5"/>
      </g>
    </g>
    <g id="numeric">
        <path d="M4,17V9H2V7H6V17H4M22,15C22,16.11 21.1,17 20,17H16V15H20V13H18V11H20V9H16V7H20A2,2 0 0,1 22,9V10.5A1.5,1.5 0 0,1 20.5,12A1.5,1.5 0 0,1 22,13.5V15M14,15V17H8V13C8,11.89 8.9,11 10,11H12V9H8V7H12A2,2 0 0,1 14,9V11C14,12.11 13.1,13 12,13H10V15H14Z" />
    </g>

    <g id="calendar-clock">
        <path d="M15,13H16.5V15.82L18.94,17.23L18.19,18.53L15,16.69V13M19,8H5V19H9.67C9.24,18.09 9,17.07 9,16A7,7 0 0,1 16,9C17.07,9 18.09,9.24 19,9.67V8M5,21C3.89,21 3,20.1 3,19V5C3,3.89 3.89,3 5,3H6V1H8V3H16V1H18V3H19A2,2 0 0,1 21,5V11.1C22.24,12.36 23,14.09 23,16A7,7 0 0,1 16,23C14.09,23 12.36,22.24 11.1,21H5M16,11.15A4.85,4.85 0 0,0 11.15,16C11.15,18.68 13.32,20.85 16,20.85A4.85,4.85 0 0,0 20.85,16C20.85,13.32 18.68,11.15 16,11.15Z" />
    </g>

    <g id="barcode">
        <path d="M2,6H4V18H2V6M5,6H6V18H5V6M7,6H10V18H7V6M11,6H12V18H11V6M14,6H16V18H14V6M17,6H20V18H17V6M21,6H22V18H21V6Z" />
    </g>
    <g id="domain">
      <path d="M18,15H16V17H18M18,11H16V13H18M20,19H12V17H14V15H12V13H14V11H12V9H20M10,7H8V5H10M10,11H8V9H10M10,15H8V13H10M10,19H8V17H10M6,7H4V5H6M6,11H4V9H6M6,15H4V13H6M6,19H4V17H6M12,7V3H2V21H22V7H12Z" />
    </g>
  </defs>
</svg>