<svg xmlns="http://www.w3.org/2000/svg" xmlns:xlink="http://www.w3.org/1999/xlink" version="1.1" x="0px" y="0px" viewBox="0 0 100 100"  xml:space="preserve"><path d="M40.5,23.1c-0.6-0.2-1.2-0.1-1.6,0.3l-4.2,4.2L23.9,16.9c-0.6-0.6-1.5-0.6-2.1,0l-4.8,4.8c-0.6,0.6-0.6,1.5,0,2.1l10.8,10.8  l-4.2,4.2c-0.4,0.4-0.6,1.1-0.3,1.6s0.8,0.9,1.4,0.9h15.4c0.8,0,1.5-0.7,1.5-1.5V24.5C41.4,23.9,41,23.4,40.5,23.1z"/><path d="M72.3,65.4l4.2-4.2c0.4-0.4,0.6-1.1,0.3-1.6s-0.8-0.9-1.4-0.9H60.1c-0.8,0-1.5,0.7-1.5,1.5v15.4c0,0.6,0.4,1.2,0.9,1.4  c0.2,0.1,0.4,0.1,0.6,0.1c0.4,0,0.8-0.2,1.1-0.4l4.2-4.2l10.8,10.8c0.3,0.3,0.7,0.4,1.1,0.4s0.8-0.1,1.1-0.4l4.8-4.8  c0.6-0.6,0.6-1.5,0-2.1L72.3,65.4z"/><path d="M39.9,58.6H24.5c-0.6,0-1.2,0.4-1.4,0.9s-0.1,1.2,0.3,1.6l4.2,4.2L16.9,76.1c-0.6,0.6-0.6,1.5,0,2.1l4.8,4.8  c0.3,0.3,0.7,0.4,1.1,0.4s0.8-0.1,1.1-0.4l10.8-10.8l4.2,4.2c0.3,0.3,0.7,0.4,1.1,0.4c0.2,0,0.4,0,0.6-0.1c0.6-0.2,0.9-0.8,0.9-1.4  V60.1C41.4,59.3,40.7,58.6,39.9,58.6z"/><path d="M78.2,16.9c-0.6-0.6-1.5-0.6-2.1,0L65.4,27.7l-4.2-4.2c-0.4-0.4-1.1-0.6-1.6-0.3s-0.9,0.8-0.9,1.4v15.4  c0,0.8,0.7,1.5,1.5,1.5h15.4c0.6,0,1.2-0.4,1.4-0.9s0.1-1.2-0.3-1.6l-4.2-4.2l10.8-10.8c0.6-0.6,0.6-1.5,0-2.1L78.2,16.9z"/></svg>