<svg xmlns="http://www.w3.org/2000/svg" xmlns:xlink="http://www.w3.org/1999/xlink" version="1.1" x="0px" y="0px" viewBox="0 0 100 100"  xml:space="preserve"><path d="M33.2,26.3l4.2-4.2c0.4-0.4,0.6-1.1,0.3-1.6c-0.2-0.6-0.8-0.9-1.4-0.9H21c-0.8,0-1.5,0.7-1.5,1.5v15.4  c0,0.6,0.4,1.2,0.9,1.4c0.2,0.1,0.4,0.1,0.6,0.1c0.4,0,0.8-0.2,1.1-0.4l4.2-4.2L37,44c0.3,0.3,0.7,0.4,1.1,0.4s0.8-0.1,1.1-0.4  l4.8-4.8c0.6-0.6,0.6-1.5,0-2.1L33.2,26.3z"/><path d="M79.6,62.2c-0.6-0.2-1.2-0.1-1.6,0.3l-4.2,4.2L63,56c-0.6-0.6-1.5-0.6-2.1,0L56,60.8c-0.6,0.6-0.6,1.5,0,2.1l10.8,10.8  l-4.2,4.2c-0.4,0.4-0.6,1.1-0.3,1.6s0.8,0.9,1.4,0.9H79c0.8,0,1.5-0.7,1.5-1.5V63.6C80.5,63,80.1,62.5,79.6,62.2z"/><path d="M39.2,56c-0.6-0.6-1.5-0.6-2.1,0L26.3,66.8l-4.2-4.2c-0.4-0.4-1.1-0.6-1.6-0.3c-0.6,0.2-0.9,0.8-0.9,1.4V79  c0,0.8,0.7,1.5,1.5,1.5h15.4c0.6,0,1.2-0.4,1.4-0.9c0.2-0.6,0.1-1.2-0.3-1.6l-4.2-4.2L44,63c0.6-0.6,0.6-1.5,0-2.1L39.2,56z"/><path d="M79,19.5H63.6c-0.6,0-1.2,0.4-1.4,0.9s-0.1,1.2,0.3,1.6l4.2,4.2L56,37c-0.6,0.6-0.6,1.5,0,2.1l4.8,4.8  c0.3,0.3,0.7,0.4,1.1,0.4s0.8-0.1,1.1-0.4l10.8-10.8l4.2,4.2c0.3,0.3,0.7,0.4,1.1,0.4c0.2,0,0.4,0,0.6-0.1c0.6-0.2,0.9-0.8,0.9-1.4  V21C80.5,20.2,79.8,19.5,79,19.5z"/></svg>